name rise36.2859peak64.2979fall75.1499.mot
datacolumns 19
datarows 30
range 7.98830200000000 8.03663700000000
endheader
time	ground_force1_vx	ground_force1_vy	ground_force1_vz	ground_force1_px	ground_force1_py	ground_force1_pz	ground_force2_vx	ground_force2_vy	ground_force2_vz	ground_force2_px	ground_force2_py	ground_force2_pz	ground_torque1_x	ground_torque1_y	ground_torque1_z	ground_torque2_x	ground_torque2_y	ground_torque2_z	
7.98830200000000	47.73872000000000	740.11985400000003	55.80261200000000	0.36975800000000	0.00000000000000	0.11004200000000	0.00000000000000	0.00000000000000	0.00000000000000	0.00000000000000	0.00000000000000	0.00000000000000	0.00000000000000	28.86979700000000	0.00000000000000	0.00000000000000	0.00000000000000	0.00000000000000	
7.98997700000000	47.17004900000000	742.00492899999995	55.90841600000000	0.36817900000000	0.00000000000000	0.11019000000000	0.00000000000000	0.00000000000000	0.00000000000000	0.00000000000000	0.00000000000000	0.00000000000000	0.00000000000000	28.87481500000000	0.00000000000000	0.00000000000000	0.00000000000000	0.00000000000000	
7.99164000000000	46.61351100000000	743.81847900000002	56.01602600000000	0.36662600000000	0.00000000000000	0.11033800000000	0.00000000000000	0.00000000000000	0.00000000000000	0.00000000000000	0.00000000000000	0.00000000000000	0.00000000000000	28.88220100000000	0.00000000000000	0.00000000000000	0.00000000000000	0.00000000000000	
7.99330700000000	46.06937300000000	745.55979300000001	56.12530100000000	0.36510000000000	0.00000000000000	0.11048700000000	0.00000000000000	0.00000000000000	0.00000000000000	0.00000000000000	0.00000000000000	0.00000000000000	0.00000000000000	28.89195800000000	0.00000000000000	0.00000000000000	0.00000000000000	0.00000000000000	
7.99498300000000	45.53781200000000	747.22815200000002	56.23604000000000	0.36360200000000	0.00000000000000	0.11063600000000	0.00000000000000	0.00000000000000	0.00000000000000	0.00000000000000	0.00000000000000	0.00000000000000	0.00000000000000	28.90404600000000	0.00000000000000	0.00000000000000	0.00000000000000	0.00000000000000	
7.99663600000000	45.01892500000000	748.82284100000004	56.34798400000000	0.36213300000000	0.00000000000000	0.11078500000000	0.00000000000000	0.00000000000000	0.00000000000000	0.00000000000000	0.00000000000000	0.00000000000000	0.00000000000000	28.91838500000000	0.00000000000000	0.00000000000000	0.00000000000000	0.00000000000000	
7.99830300000000	44.51273000000000	750.34315700000002	56.46082300000000	0.36069500000000	0.00000000000000	0.11093400000000	0.00000000000000	0.00000000000000	0.00000000000000	0.00000000000000	0.00000000000000	0.00000000000000	0.00000000000000	28.93485800000000	0.00000000000000	0.00000000000000	0.00000000000000	0.00000000000000	
7.99999400000000	44.01916700000000	751.78842799999995	56.57419900000000	0.35928900000000	0.00000000000000	0.11108200000000	0.00000000000000	0.00000000000000	0.00000000000000	0.00000000000000	0.00000000000000	0.00000000000000	0.00000000000000	28.95331300000000	0.00000000000000	0.00000000000000	0.00000000000000	0.00000000000000	
8.00163900000000	43.53810500000000	753.15801799999997	56.68771600000000	0.35791500000000	0.00000000000000	0.11123000000000	0.00000000000000	0.00000000000000	0.00000000000000	0.00000000000000	0.00000000000000	0.00000000000000	0.00000000000000	28.97356800000000	0.00000000000000	0.00000000000000	0.00000000000000	0.00000000000000	
8.00330500000000	43.06934500000000	754.45134199999995	56.80093600000000	0.35657400000000	0.00000000000000	0.11137600000000	0.00000000000000	0.00000000000000	0.00000000000000	0.00000000000000	0.00000000000000	0.00000000000000	0.00000000000000	28.99541500000000	0.00000000000000	0.00000000000000	0.00000000000000	0.00000000000000	
8.00497000000000	42.61262600000000	755.66787399999998	56.91339600000000	0.35526700000000	0.00000000000000	0.11152200000000	0.00000000000000	0.00000000000000	0.00000000000000	0.00000000000000	0.00000000000000	0.00000000000000	0.00000000000000	29.01861800000000	0.00000000000000	0.00000000000000	0.00000000000000	0.00000000000000	
8.00663300000000	42.16762400000000	756.80715899999996	57.02460400000000	0.35399400000000	0.00000000000000	0.11166700000000	0.00000000000000	0.00000000000000	0.00000000000000	0.00000000000000	0.00000000000000	0.00000000000000	0.00000000000000	29.04292200000000	0.00000000000000	0.00000000000000	0.00000000000000	0.00000000000000	
8.00830000000000	41.73396300000000	757.86882000000003	57.13404900000000	0.35275500000000	0.00000000000000	0.11181000000000	0.00000000000000	0.00000000000000	0.00000000000000	0.00000000000000	0.00000000000000	0.00000000000000	0.00000000000000	29.06805700000000	0.00000000000000	0.00000000000000	0.00000000000000	0.00000000000000	
8.00998100000000	41.31121600000000	758.85256900000002	57.24120700000000	0.35155100000000	0.00000000000000	0.11195200000000	0.00000000000000	0.00000000000000	0.00000000000000	0.00000000000000	0.00000000000000	0.00000000000000	0.00000000000000	29.09373400000000	0.00000000000000	0.00000000000000	0.00000000000000	0.00000000000000	
8.01163700000000	40.89891000000000	759.75821099999996	57.34554500000000	0.35038100000000	0.00000000000000	0.11209100000000	0.00000000000000	0.00000000000000	0.00000000000000	0.00000000000000	0.00000000000000	0.00000000000000	0.00000000000000	29.11965500000000	0.00000000000000	0.00000000000000	0.00000000000000	0.00000000000000	
8.01330600000000	40.49653200000000	760.58565499999997	57.44652400000000	0.34924600000000	0.00000000000000	0.11223000000000	0.00000000000000	0.00000000000000	0.00000000000000	0.00000000000000	0.00000000000000	0.00000000000000	0.00000000000000	29.14551500000000	0.00000000000000	0.00000000000000	0.00000000000000	0.00000000000000	
8.01497900000000	40.10353400000000	761.33491600000002	57.54361000000000	0.34814400000000	0.00000000000000	0.11236600000000	0.00000000000000	0.00000000000000	0.00000000000000	0.00000000000000	0.00000000000000	0.00000000000000	0.00000000000000	29.17100200000000	0.00000000000000	0.00000000000000	0.00000000000000	0.00000000000000	
8.01663300000000	39.71933400000000	762.00612200000000	57.63627600000000	0.34707700000000	0.00000000000000	0.11250000000000	0.00000000000000	0.00000000000000	0.00000000000000	0.00000000000000	0.00000000000000	0.00000000000000	0.00000000000000	29.19580400000000	0.00000000000000	0.00000000000000	0.00000000000000	0.00000000000000	
8.01829900000000	39.34332900000000	762.59952199999998	57.72400500000000	0.34604200000000	0.00000000000000	0.11263100000000	0.00000000000000	0.00000000000000	0.00000000000000	0.00000000000000	0.00000000000000	0.00000000000000	0.00000000000000	29.21960700000000	0.00000000000000	0.00000000000000	0.00000000000000	0.00000000000000	
8.01997400000000	38.97488900000000	763.11548100000005	57.80630000000000	0.34504000000000	0.00000000000000	0.11276100000000	0.00000000000000	0.00000000000000	0.00000000000000	0.00000000000000	0.00000000000000	0.00000000000000	0.00000000000000	29.24210500000000	0.00000000000000	0.00000000000000	0.00000000000000	0.00000000000000	
8.02163600000000	38.61337100000000	763.55449199999998	57.88268100000000	0.34407000000000	0.00000000000000	0.11288700000000	0.00000000000000	0.00000000000000	0.00000000000000	0.00000000000000	0.00000000000000	0.00000000000000	0.00000000000000	29.26299300000000	0.00000000000000	0.00000000000000	0.00000000000000	0.00000000000000	
8.02330200000000	38.25812000000000	763.91717000000006	57.95269800000000	0.34313100000000	0.00000000000000	0.11301200000000	0.00000000000000	0.00000000000000	0.00000000000000	0.00000000000000	0.00000000000000	0.00000000000000	0.00000000000000	29.28198000000000	0.00000000000000	0.00000000000000	0.00000000000000	0.00000000000000	
8.02496900000000	37.90847200000000	764.20425799999998	58.01592700000000	0.34222200000000	0.00000000000000	0.11313300000000	0.00000000000000	0.00000000000000	0.00000000000000	0.00000000000000	0.00000000000000	0.00000000000000	0.00000000000000	29.29878200000000	0.00000000000000	0.00000000000000	0.00000000000000	0.00000000000000	
8.02663600000000	37.56376000000000	764.41662599999995	58.07197800000000	0.34134100000000	0.00000000000000	0.11325200000000	0.00000000000000	0.00000000000000	0.00000000000000	0.00000000000000	0.00000000000000	0.00000000000000	0.00000000000000	29.31313000000000	0.00000000000000	0.00000000000000	0.00000000000000	0.00000000000000	
8.02829900000000	37.22331900000000	764.55526999999995	58.12049700000000	0.34048900000000	0.00000000000000	0.11336900000000	0.00000000000000	0.00000000000000	0.00000000000000	0.00000000000000	0.00000000000000	0.00000000000000	0.00000000000000	29.32476900000000	0.00000000000000	0.00000000000000	0.00000000000000	0.00000000000000	
8.02997600000000	36.88648800000000	764.62130900000000	58.16116900000000	0.33966300000000	0.00000000000000	0.11348200000000	0.00000000000000	0.00000000000000	0.00000000000000	0.00000000000000	0.00000000000000	0.00000000000000	0.00000000000000	29.33346200000000	0.00000000000000	0.00000000000000	0.00000000000000	0.00000000000000	
8.03163900000000	36.55261400000000	764.61598600000002	58.19372100000000	0.33886200000000	0.00000000000000	0.11359300000000	0.00000000000000	0.00000000000000	0.00000000000000	0.00000000000000	0.00000000000000	0.00000000000000	0.00000000000000	29.33898900000000	0.00000000000000	0.00000000000000	0.00000000000000	0.00000000000000	
8.03330600000000	36.22106000000000	764.54066399999999	58.21792100000000	0.33808500000000	0.00000000000000	0.11370100000000	0.00000000000000	0.00000000000000	0.00000000000000	0.00000000000000	0.00000000000000	0.00000000000000	0.00000000000000	29.34115000000000	0.00000000000000	0.00000000000000	0.00000000000000	0.00000000000000	
8.03498000000000	35.89120000000000	764.39682000000005	58.23358500000000	0.33733000000000	0.00000000000000	0.11380500000000	0.00000000000000	0.00000000000000	0.00000000000000	0.00000000000000	0.00000000000000	0.00000000000000	0.00000000000000	29.33976700000000	0.00000000000000	0.00000000000000	0.00000000000000	0.00000000000000	
8.03663700000000	35.56243100000000	764.18604700000003	58.24057300000000	0.33659600000000	0.00000000000000	0.11390800000000	0.00000000000000	0.00000000000000	0.00000000000000	0.00000000000000	0.00000000000000	0.00000000000000	0.00000000000000	29.33468200000000	0.00000000000000	0.00000000000000	0.00000000000000	0.00000000000000	
